<?xml version="1.0"?>
<svg version="1.1" xmlns="http://www.w3.org/2000/svg" width="80px" height="110px" style="border:2px solid red"><path fill="#" d="M64.1640625,78.6328125l0,0.3515625q0,1.171875-0.234375,1.7578125q0.078125,0.15625,0.078125,0.859375l0,0.3125q0,0.0390625-0.29296875,0.37109375t-0.29296875,0.37109375q0,0.078125-0.078125,0.25390625t-0.078125,0.21484375q-0.078125,0.2734375-0.2734375,0.83984375t-0.2734375,0.83984375q-0.078125,0.234375-0.1953125,0.859375t-0.2734375,1.1328125t-0.390625,0.8203125q-0.1953125,0.859375-0.9765625,1.9921875q-0.078125,0.1171875-0.234375,0.56640625t-0.234375,0.56640625q-0.1953125,0.1953125-0.3515625,0.60546875t-0.3125,0.56640625q-0.0390625,0.3515625-0.44921875,0.83984375t-0.72265625,0.60546875q-0.15625,0.2734375-0.3515625,0.390625q0,0.7421875-0.078125,1.0546875q-0.3125,0.7421875-1.25,1.3671875q-0.0390625,0.0390625-1.6015625,1.3671875q-0.3125,0.3125-1.09375,0.859375t-1.09375,0.8984375q-1.0546875,1.2109375-1.9140625,1.6796875q-0.1171875,0.0390625-1.2890625,0.703125t-1.8359375,0.6640625q-0.390625,0-0.9375-0.2734375q-0.1171875-0.0390625-0.5078125-0.390625t-0.703125-0.3125q-0.5859375,0.2734375-0.9765625,0.390625q-0.1171875,0-0.37109375,0.0390625t-0.41015625,0.0390625q-0.390625,0-0.7421875-0.234375q-0.1171875,0-0.4296875,0.13671875t-0.4296875,0.17578125l-0.15625,0q-0.1171875,0-0.33203125-0.078125t-0.33203125-0.078125q-0.15625,0-0.234375,0.078125q-1.09375,0.6640625-1.7578125,0.6640625q-0.3125,0-0.390625-0.078125q-0.078125,0.078125-0.546875,0.078125q-0.7421875,0-0.8984375-0.078125q-0.9375,0.15625-1.5234375,0.15625q-0.234375,0.15625-0.703125,0.15625q-0.5078125,0-0.6640625-0.078125q-0.1171875-0.0390625-1.11328125-0.25390625t-1.42578125-0.48828125q-0.078125,0-0.52734375,0.13671875t-0.68359375,0.13671875q-0.4296875,0-0.625-0.1953125q-0.15625-0.1171875-0.25390625-0.25390625t-0.15625-0.21484375t-0.1953125-0.1171875t-0.37109375-0.0390625q-2.0703125-0.3125-2.5390625-0.625q-0.390625,0.078125-0.8203125,0.390625q-0.078125,0.078125-0.3125,0.078125q-0.3125,0-0.3125-0.390625q0-0.3125,0.234375-0.4296875q-0.8984375-0.78125-2.890625-1.89453125t-2.6953125-1.62109375q-0.546875-0.234375-1.3671875-0.8984375t-1.2109375-1.171875q-0.3125-0.15625-0.859375-0.703125l-0.5078125-0.078125q-0.46875-0.078125-0.46875-0.2734375q0-0.15625,0.15625-0.3125q-1.328125-0.859375-2.1484375-2.3046875q-0.703125-1.015625-1.1328125-1.8359375q-0.078125-0.15625-0.234375-0.15625t-0.44921875,0.15625t-0.44921875,0.15625t-0.234375-0.15625t-0.078125-0.390625q0-0.1953125,0.5078125-1.2109375q-0.078125-0.078125-0.2734375-0.46875q-0.8984375-1.25-1.171875-2.34375l-0.2734375-0.390625l-0.15625,0l-0.3125,0q-0.3125-0.1171875-0.3125-0.3125q0-0.15625,0.1953125-0.41015625t0.3515625-0.33203125q-0.546875-1.2890625-0.546875-2.1484375q-0.3515625-0.7421875-0.546875-2.3828125q-0.0390625-0.1953125-0.37109375-0.3515625t-0.37109375-0.390625q0-0.0390625-0.0390625-0.15625t-0.0390625-0.15625q0-0.3125,0.2734375-0.7421875t0.3125-0.625q-0.1953125-0.6640625-0.1953125-1.6796875q0-0.4296875,0.0390625-1.25t0.0390625-1.2890625q0-0.8203125-0.078125-1.2109375q-0.15625,0.078125-0.390625,0.078125q-0.390625,0-0.390625-0.390625q0-0.703125,0.859375-1.2109375q0.1953125-0.3125,0.1953125-0.8203125q0-0.546875,0.078125-0.78125q0.15625-0.46875,0.25390625-1.5234375t0.29296875-1.6015625q0.78125-2.578125,1.3671875-3.359375l0-0.078125q0-0.46875,0.2734375-1.26953125t0.5078125-1.11328125l0-0.15625q0-0.5078125,0.3515625-1.11328125t0.78125-0.83984375q0.4296875-1.25,1.2109375-1.5234375q0.078125-0.078125,0.078125-0.234375l0-0.234375q0-0.234375,0.15625-0.3125l0.46875-0.46875q0.1953125-0.46875,0.9375-1.09375t0.8203125-0.7421875q0.15625-0.703125,1.6015625-1.5234375q0.2734375-0.625,0.8984375-0.8984375l0-0.234375q0-0.4296875,0.3125-1.0546875q0.234375-0.3515625,0.78125-0.78125t0.7421875-0.6640625q0.390625-0.625,1.171875-1.25q1.2890625-1.1328125,2.421875-1.1328125q0.390625,0,0.625,0.078125q0.3125,0.1171875,0.7421875,0.390625q0.15625-0.15625,0.625-0.3125l0.234375,0q0.5859375,0,0.9765625,0.390625q0.0390625-0.3515625,0.25390625-0.46875t0.56640625-0.1171875t0.46875-0.0390625q0.625-0.3125,0.859375-0.3125q0.0390625,0,0.1171875,0.0390625t0.1171875,0.0390625q0-0.2734375,0.21484375-0.46875t0.44921875-0.1953125q0.1953125,0,0.390625,0.1953125q0.1953125,0.1171875,0.3125,0.3125q0.0390625,0.078125,0.078125,0.078125t0.078125-0.01953125t0.13671875-0.05859375t0.17578125-0.078125q0.0390625,0,0.78125-0.60546875t1.171875-0.60546875q0.390625,0,0.78125,0.390625q0.15625-0.3125,0.390625-0.3125l0.15625,0q0.2734375,0,0.5859375,0.3125q0.078125,0,0.1953125-0.0390625t0.1953125-0.0390625l0.15625,0q0.078125,0,0.3515625-0.0390625t0.4296875-0.0390625l0.1953125,0q1.5625,0.3125,2.2265625,0.3125t1.1328125,0.234375q0.078125-0.078125,0.3125-0.078125q0.1953125,0,0.64453125,0.13671875t0.64453125,0.13671875l0.15625,0q0.078125-0.078125,0.46875-0.078125q0.546875,0,1.328125,0.1953125t1.0546875,0.4296875q0.6640625-0.1171875,2.421875,0.78125q0.3515625,0.0390625,0.72265625,0.1953125t0.859375,0.44921875t0.72265625,0.41015625q1.015625,0.5078125,1.2109375,0.703125q0.1953125,0.0390625,0.625-0.1171875t0.6640625-0.1171875q0.3125,0.078125,0.3125,0.4296875q0,0.1171875-0.0390625,0.33203125t-0.0390625,0.29296875q0,0.15625,0.078125,0.15625q0.46875,0.1953125,1.0546875,0.625q-0.0390625-0.15625-0.234375-0.41015625t-0.1953125-0.37109375q0-0.1953125,0.3125-0.390625q0.78125-0.390625,0.8984375-0.5859375q0-1.40625,1.1328125-2.3828125q0.078125-0.078125,0.390625-0.078125q0.5859375,0,1.0546875,0.15625q1.015625,0,1.484375,0.078125q0.1171875,0,0.5859375-0.078125t0.703125-0.078125q0.3125,0,0.390625,0.078125l0.2734375,0q0.234375,0,0.546875-0.15625q0.078125-0.0390625,0.2734375-0.1171875t0.2734375-0.1171875q0.0390625,0,0.46875,0.234375t0.5078125,0.3125q0.46875,0.1953125,0.46875,1.0546875l0,0.3125q0.078125,0.234375,0.078125,0.859375q0,0.3125-0.0390625,0.9375t-0.0390625,0.8203125q0.15625,1.796875,0.15625,2.734375q0.234375,1.640625,0.234375,2.1484375t-0.078125,0.6640625q0.15625,0.625,0.15625,1.6796875q0,0.703125-0.078125,0.859375l0,0.5859375q0,1.328125-0.234375,1.9140625q0.15625,0.625,0.15625,1.4453125q0,1.0546875-0.15625,1.6796875q0.15625,1.40625,0.15625,1.8359375q0,0.703125-0.15625,1.09375q0,0.0390625-0.0390625,0.4296875t-0.0390625,0.546875q0,0.234375,0.078125,0.3125q0.078125,0.15625,0.078125,0.7421875q0,0.390625-0.078125,0.546875q-0.3515625,0.703125-1.4453125,0.703125l-0.234375,0q-0.0390625,0-0.234375-0.0390625t-0.234375-0.0390625q-0.078125-0.078125-0.3125-0.078125l-0.4296875,0l-0.234375,0q-0.15625-0.078125-0.46875-0.078125q-0.234375,0-0.76171875,0.078125t-0.76171875,0.078125q-0.078125,0-0.234375-0.0390625t-0.234375-0.0390625q-0.234375,0.078125-1.1328125,0.078125q-1.6015625,0-2.0703125-0.46875q-0.3515625,0-0.5078125-0.25390625t-0.234375-0.703125t-0.15625-0.56640625q-0.3125,0.15625-0.390625,0.15625q-0.234375,0-0.234375-0.3125q0-0.234375,0.15625-0.703125t0.15625-0.5078125q-0.078125-0.1171875-0.15625-0.48828125t-0.15625-0.52734375q-0.0390625-0.078125-0.234375-0.6640625q-0.546875,0-0.625-0.234375l-0.1171875-0.15625q0-0.15625,0.2734375-0.390625t0.3125-0.3125q-0.078125-0.078125-0.078125-0.5078125l0-0.234375q-0.0390625-0.078125-0.05859375-0.52734375t-0.09765625-0.56640625q0-0.078125-0.15625-0.078125q-0.078125,0-0.33203125,0.0390625t-0.33203125,0.0390625q-0.3125,0-0.3125-0.3515625l0-0.15625q0.0390625-0.15625,0.25390625-0.25390625t0.21484375-0.21484375q0-0.078125-0.078125-0.15625l-0.234375-0.46875q-0.8984375-0.8984375-1.1328125-1.3671875q-0.46875-0.3515625-0.9375-0.9765625q-0.078125-0.0390625-0.3515625-0.078125t-0.48828125-0.13671875t-0.21484375-0.25390625q0-0.234375,0.078125-0.3125q-0.8203125-0.8203125-2.5390625-1.3671875l-0.390625-0.15625l-0.29296875-0.1171875t-0.21484375-0.0390625q-0.078125,0-0.703125,0.15625q-0.0390625,0-0.13671875,0.0390625t-0.17578125,0.0390625q-0.7421875,0-0.7421875-0.390625q0-0.1171875,0.15625-0.2734375q-0.78125,0-1.015625-0.15625q-0.15625,0-0.41015625,0.13671875t-0.41015625,0.13671875l-0.78125-0.1953125q-0.2734375,0-0.4296875,0.078125q-0.7421875,0-1.09375-0.234375q-0.078125,0-0.29296875,0.0390625t-0.29296875,0.0390625q-0.6640625,0-1.015625-0.234375q-0.1171875,0.0390625-0.2734375,0.1171875q-0.15625,0.0390625-0.234375,0.1953125q0,0.0390625-0.01953125,0.078125l-0.05859375,0.1171875q-0.3125,0.46875-0.546875,0.703125q-0.5859375,0.5859375-1.9921875,1.3671875q-0.0390625,0-0.76171875,0.60546875t-1.30859375,0.56640625q-0.5078125-0.0390625-1.015625,0.3125t-0.8203125,0.4296875l-0.3515625,0.1171875t-0.3125,0.1171875t-0.21484375,0.17578125t-0.25390625,0.37109375q-0.078125,0.1953125-0.9765625,1.2890625q-0.078125,0.15625-0.2734375,0.64453125t-0.3515625,0.72265625q0.0390625,0.234375-0.25390625,0.859375t-0.48828125,0.8203125q0.0390625,0.2734375-0.1171875,0.625t-0.41015625,0.78125t-0.33203125,0.5859375q0,0.6640625-0.46875,1.3671875q-0.5078125,1.3671875-0.5078125,1.8359375q0,0.4296875,0.078125,0.6640625l0,0.15625q0,0.546875-0.3125,1.015625l0,0.6640625q0.15625,0.3125,0.15625,0.859375q0,0.1171875-0.0390625,0.29296875t-0.0390625,0.25390625q0.15625,0.234375,0.15625,1.1328125q0,0.8203125-0.078125,1.1328125l0,0.703125q0.234375,0,0.3515625,0.234375q0,0.234375-0.2734375,0.5078125q-0.078125,0.078125-0.078125,0.15625q0,0.0390625,0.0390625,0.15625t0.0390625,0.15625q0.3515625,1.40625,0.3515625,2.1484375q0.3125,1.09375,0.3125,1.8359375l0,0.2734375q0.3515625,0.6640625,0.625,1.6796875q0.1953125,0.4296875,0.5859375,1.6015625t0.703125,1.7578125q0.234375,0.3515625,0.76171875,1.07421875t0.76171875,1.07421875q0.390625,0.8203125,0.703125,1.015625q0.1171875,0.0390625,0.48828125-0.234375t0.56640625-0.234375q0.3125,0.1171875,0.3125,0.3125q0,0.2734375-0.234375,0.5859375t-0.390625,0.390625q0.3515625,0.1171875,1.09375,0.60546875t1.2109375,0.60546875q0.1953125,0.078125,0.7421875,0.3515625t0.859375,0.3515625q0.1171875,0,0.2734375-0.078125t0.2734375-0.078125q0.15625,0.0390625,0.25390625,0.25390625t0.25390625,0.29296875q0.8203125,0.3125,1.25,0.5859375l0.6640625,0.15625q0.15625,0,0.390625-0.1171875t0.390625-0.1171875l0.15625,0q0.2734375,0,0.7421875,0.15625q0.3125-0.15625,0.546875-0.15625q0.078125,0,0.390625,0.15625q0.1953125,0,0.6640625-0.0390625t0.703125-0.0390625q0.5078125,0,0.6640625,0.078125l0-0.234375q0-0.3515625,0.1953125-0.5859375t0.4296875-0.234375t0.625,0.390625q3.1640625-3.671875,5.625-4.375q0.234375-0.078125,0.78125-0.078125q0.4296875,0,0.6640625,0.078125q0.15625-0.15625,0.3125-0.46875t0.234375-0.4296875t0.41015625-0.4296875t0.546875-0.60546875t0.25390625-0.48828125q-0.5078125-0.1171875-0.5078125-0.3125q0-0.15625,0.17578125-0.390625t0.4296875-0.44921875t0.29296875-0.29296875q0-0.46875,0.390625-0.859375l0-0.234375q0-0.703125,0.234375-1.0546875q0.0390625-0.15625,0.29296875-0.72265625t0.48828125-1.0546875t0.1953125-0.52734375q-0.078125-0.078125-0.078125-0.234375q0-0.46875,0.56640625-0.91796875t1.03515625-0.44921875q0.234375,0,0.3125,0.078125q0.3515625,0.234375,0.625,0.234375t0.83984375-0.15625t0.83984375-0.15625q0.5078125,0,0.6640625,0.15625q0.2734375,0,0.83984375-0.15625t0.83984375-0.15625l0.3125,0l1.2890625,0q2.0703125,0,2.0703125,0.859375q0,0.234375-0.078125,0.390625z M57.8359375,91.0546875l-0.15625,0.078125q0.078125,0,0.15625-0.078125l0-0.234375q-0.390625,0.3125-1.19140625,0.95703125t-1.19140625,0.95703125q0.703125,0,1.015625,0.078125q0.078125-0.2734375,0.5078125-0.546875q0.3515625-0.8984375,0.859375-1.2109375z M60.7265625,84.8828125l-0.078125,0l0.078125,0q-1.2109375,0.9765625-3.69140625,2.7734375t-2.79296875,2.03125q3.9453125-2.421875,4.9609375-2.8125q0.078125-0.0390625,0.2734375-0.09765625t0.234375-0.078125t0.17578125-0.078125t0.17578125-0.09765625t0.1171875-0.13671875t0.13671875-0.1953125t0.09765625-0.25390625q0-0.15625,0.15625-0.52734375t0.15625-0.52734375z M56,89.609375q-0.078125,0.078125-0.15625,0.078125l0.15625-0.078125q-0.078125,0.0390625-1.0546875,0.625q0.0390625,0,4.1796875-2.1484375q-1.7578125,0.6640625-3.125,1.5234375z M61.1171875,83.046875l0,0.078125l0-0.078125q-0.0390625,0.1171875-0.52734375,0.3515625t-1.0546875,0.52734375t-0.72265625,0.41015625q-0.4296875,0.1953125-0.9765625,0.625q-1.6015625,0.8984375-3.984375,2.578125q-0.234375,0.15625-0.72265625,0.4296875t-0.72265625,0.4296875q-0.1953125,0.1171875-0.5859375,0.52734375t-0.703125,0.52734375q-0.78125,0.2734375-0.859375,0.3125q-0.078125,0.1171875-0.15625,0.33203125t-0.13671875,0.3515625t-0.1953125,0.25390625t-0.33203125,0.1171875q-0.4296875-0.0390625-0.56640625,0.05859375t-0.1953125,0.390625t-0.21484375,0.48828125q-0.15625,0.234375-0.56640625,0.5078125t-0.52734375,0.390625q2.421875-1.484375,10.15625-6.640625q0.4296875-0.3125,1.30859375-0.91796875t1.30859375-0.91796875q0.0390625,0,0.2734375-0.1171875t0.390625-0.1171875l0.078125,0q0.1171875,0,0.15625-0.1953125t0.0390625-0.4296875t0.0390625-0.2734375z M34.0078125,100.390625l0.3125-0.078125l-0.3125,0.078125q2.8515625-1.328125,9.84375-5.5078125q-0.2734375-0.078125-0.68359375-0.3515625t-0.60546875-0.2734375q-0.3125,0-0.546875,0.234375q-1.1328125,0.8984375-2.734375,1.9140625q-1.0546875,0.703125-3.10546875,1.97265625t-2.83203125,1.77734375q0.46875,0.234375,0.6640625,0.234375z M40.5703125,94.5703125q-1.7578125,0.9765625-5.0390625,2.890625t-3.9453125,2.3046875l0.2734375,0q0.46875,0,0.546875,0.078125q0.390625-0.15625,1.015625-0.625q0.15625-0.1171875,1.15234375-0.7421875t1.58203125-0.9375q0.4296875-0.2734375,1.34765625-0.87890625t1.38671875-0.87890625q0.1953125-0.1171875,0.546875-0.41015625t0.64453125-0.48828125t0.48828125-0.3125z M57.9140625,81.9921875q-0.625,0.4296875-0.625,0.5078125l0.625-0.5078125q-1.3671875,0.9375-2.8125,1.7578125q-0.2734375,0.15625-0.4296875,0.3125t-0.21484375,0.2734375t-0.15625,0.3515625t-0.21484375,0.4296875q0.5078125-0.390625,2.08984375-1.6015625t2.40234375-1.9140625q-0.5078125,0.3515625-0.6640625,0.390625z M62.25,79.453125l-0.3125,0.390625q0.3125-0.3125,0.3125-0.390625q-1.09375,1.2109375-2.55859375,2.40234375t-3.30078125,2.51953125t-2.7734375,2.109375q3.0078125-1.6796875,6.796875-4.140625q0.078125-0.0390625,0.37109375-0.234375t0.41015625-0.1953125q0.15625,0,0.25390625-0.01953125t0.15625-0.0390625t0.09765625-0.078125t0.05859375-0.1171875t0.0390625-0.17578125t0.05859375-0.1953125q0.2734375-0.703125,0.390625-1.8359375z M58.890625,79.453125l-0.15625,0.078125q0.15625,0,0.15625-0.078125q-0.15625,0.078125-0.60546875,0.1953125t-0.68359375,0.3515625q-0.15625,0.15625-0.52734375,0.48828125t-0.52734375,0.48828125q-0.9375,0.78125-1.4453125,1.2890625q-0.15625,0.15625-0.21484375,0.234375t-0.078125,0.13671875t-0.0390625,0.1953125t-0.05859375,0.29296875q3.125-1.9140625,5.4296875-3.515625q-0.9375,0-1.25-0.15625z M55.296875,80.8984375q0,0.078125,0.078125,0.078125t0.234375-0.17578125t0.234375-0.29296875q-0.234375-0.234375-0.234375-0.4296875q-0.0390625,0.1171875-0.15625,0.41015625t-0.15625,0.41015625z M38.3046875,94.5703125q-0.4296875-0.0390625-1.015625,0.3515625t-1.3671875,1.11328125t-0.8984375,0.83984375q0.1953125-0.1171875,4.1796875-2.3828125q-0.15625,0-0.44921875,0.0390625t-0.44921875,0.0390625z M36,94.1796875l0.078125,0l-0.078125,0q-0.1171875,0-0.29296875-0.1171875t-0.25390625-0.1171875l-0.15625,0.15625q-0.1171875,0.15625-0.8984375,0.9375q-0.3125,0.2734375-0.703125,0.5859375t-0.859375,0.6640625t-0.7421875,0.5859375q1.171875-0.7421875,4.375-2.4609375q-0.234375-0.234375-0.46875-0.234375z M30.8828125,91.8359375l-0.078125,0l0.078125,0q-0.3125-0.0390625-0.56640625-0.21484375t-0.33203125-0.17578125q-0.1953125,0-0.625,0.3125q-0.234375,0.1953125-2.4609375,2.1875q-0.546875,0.390625-1.7578125,1.50390625t-1.2109375,1.42578125l0,0.078125q1.328125-0.7421875,3.96484375-2.24609375t3.96484375-2.28515625q-0.5078125-0.1171875-0.9765625-0.5859375z M26.078125,98.3203125q0.1171875-0.078125,1.640625-1.1328125t2.34375-1.640625q-1.7578125,1.25-4.140625,2.6171875q0,0.15625,0.15625,0.15625z M29.203125,90.8203125q-0.1953125-0.1171875-0.5859375,0.01953125t-0.8984375,0.46875t-0.95703125,0.64453125t-0.9375,0.6640625t-0.60546875,0.4296875q-2.1484375,1.40625-2.96875,2.1484375q0.859375-0.234375,3.96484375-2.1875t2.98828125-2.1875z M22.09375,93.203125q1.0546875-0.625,3.0859375-1.81640625t3.046875-1.77734375q-0.234375-0.234375-0.52734375-0.72265625t-0.41015625-0.64453125q-0.078125,0.078125-5.1953125,4.9609375z M26.703125,87.6171875l0,0.078125l0.078125-0.078125l-0.078125,0z M24.9453125,83.8671875q-0.15625-0.234375-0.33203125-0.8203125t-0.21484375-0.625q-1.09375,1.171875-3.33984375,3.515625t-3.37890625,3.515625q1.328125-0.625,5.2734375-3.28125q0.15625-0.15625,0.8984375-0.60546875t1.09375-0.44921875q0.15625,0,0.15625,0.234375l0,0.2734375q-0.1171875,0.3515625-0.5078125,0.76171875t-0.76171875,0.68359375t-0.9375,0.64453125t-0.72265625,0.44921875q-0.4296875,0.3125-1.25,0.91796875t-1.30859375,0.99609375t-1.15234375,0.9375t-1.171875,1.0546875q0.0390625,0,0.1171875,0.05859375t0.1171875,0.05859375q0.2734375,0,0.625-0.17578125t0.78125-0.48828125t0.5859375-0.390625q0.1953125-0.1171875,2.890625-1.8359375q0.4296875-0.2734375,1.2109375-0.78125t1.46484375-0.91796875t1.30859375-0.72265625q-1.328125-1.71875-1.4453125-3.0078125z M13.7734375,87.4609375q1.1328125-0.625,3.4375-1.97265625t3.4375-1.97265625q0.546875-0.3125,1.62109375-0.95703125t1.58203125-0.95703125q0.15625-0.15625,0.15625-0.390625q0-0.1953125-0.390625-1.7578125q-4.8046875,3.359375-5.625,3.984375q-1.328125,0.9375-3.28125,2.578125q-0.1171875,0.078125-0.29296875,0.21484375t-0.2734375,0.234375l-0.21484375,0.21484375t-0.17578125,0.21484375t-0.05859375,0.21484375q0,0.2734375,0.078125,0.3515625z M23.265625,77.2265625q0,0.078125-0.68359375,0.625t-1.5625,1.19140625t-0.95703125,0.72265625q-0.5078125,0.46875-1.5234375,1.30859375t-1.5625,1.26953125q0.78125-0.390625,3.984375-2.34375q0.3515625-0.1953125,1.07421875-0.5859375t1.07421875-0.5859375q0.3125-0.1953125,0.3125-0.5859375q0-0.078125-0.078125-0.4296875t-0.078125-0.5859375z M11.3515625,82.265625l0.8203125-0.6640625l-0.8203125,0.6640625q7.109375-5.78125,9.765625-8.2421875q-1.171875,0.6640625-3.53515625,2.01171875t-3.49609375,2.05078125q-0.546875,0.2734375-1.58203125,0.87890625t-1.54296875,0.87890625q-0.078125,0-0.078125,0.234375q0,0.78125,0.46875,2.1875z M10.2578125,74.6484375l0.078125-0.078125l-0.078125,0.078125q0.078125,0.078125,0.078125,0.15625q0.7421875-0.703125,1.6015625-1.4453125t1.50390625-1.2890625t1.77734375-1.38671875t1.6015625-1.19140625t1.8359375-1.30859375t1.640625-1.15234375t1.85546875-1.2890625t1.69921875-1.171875q-1.71875,0.5078125-5.0390625,2.8125q-4.0234375,2.6171875-7.3046875,5.0390625q-0.46875,0.3125-0.703125,0.3125q-0.390625,0-0.390625-0.390625q0-0.0390625,0.0390625-0.15625t0.0390625-0.1953125q0.1171875-0.3515625,0.4296875-0.78125t0.52734375-0.64453125t0.7421875-0.6640625t0.60546875-0.52734375q2.0703125-1.71875,7.265625-5.4296875q-6.4453125,3.90625-8.9453125,5.4296875q-0.390625,0.234375-0.5859375,0.52734375t-0.21484375,0.5859375t-0.01953125,0.68359375t-0.0390625,0.8203125q0.15625,0.46875,0.15625,1.2890625q0,0.7421875-0.15625,1.3671875z M26.078125,59.453125l0,0.078125l0-0.078125q0-0.0390625,0.0390625-0.1171875t0.0390625-0.1171875q-2.0703125,1.484375-3.046875,2.0703125q1.8359375-1.015625,2.421875-1.1328125q0.234375-0.0390625,0.2734375-0.0390625t0.09765625-0.0390625t0.0390625-0.09765625t0.01953125-0.1953125t0.1171875-0.33203125z M23.03125,71.6796875l-0.078125,0l0.078125,0q0-0.078125-0.078125-0.078125q-0.1171875,0-0.33203125,0.17578125t-0.44921875,0.390625t-0.3125,0.25390625q-0.3125,0.234375-1.015625,0.72265625t-1.015625,0.72265625q0.078125-0.0390625,0.859375-0.5859375t1.42578125-0.87890625t0.91796875-0.21484375l0-0.3515625l0-0.15625z M23.421875,65.9375l0,0.078125l0-0.078125q0.0390625-0.0390625,0.09765625-0.1171875t0.09765625-0.1171875q-4.8828125,3.3203125-9.0625,6.5625q-1.484375,1.09375-3.515625,2.8515625q-0.625,0.625-0.625,1.2890625q0,0.078125,0.0390625,0.4296875t0.0390625,0.625q0.9765625-0.4296875,1.93359375-0.91796875t2.01171875-1.171875t1.73828125-1.1328125t1.953125-1.328125l1.77734375-1.23046875q0.15625-0.1171875,1.03515625-0.625t1.3671875-0.9375t0.64453125-0.8984375l0-0.390625q0-1.484375,0.46875-2.890625z M25.21875,61.7578125l0-0.078125l0,0.078125l0-0.390625q-0.703125,0.46875-2.59765625,1.71875t-2.87109375,1.9140625t-2.48046875,1.7578125t-2.71484375,2.08984375t-2.3046875,2.05078125q6.4453125-4.609375,9.609375-6.25q1.09375-0.6640625,2.0703125-0.8984375q0.2734375-0.078125,0.5078125-0.44921875t0.46875-0.87890625t0.3125-0.6640625z M17.6796875,62.8125l1.8359375-1.1328125q-1.5234375,0.8984375-1.8359375,1.1328125q1.71875-1.015625,5.1953125-3.06640625t5.1953125-3.10546875q-1.09375,0.4296875-2.109375,0.91796875t-2.32421875,1.30859375t-1.85546875,1.171875t-2.2265625,1.484375t-1.875,1.2890625z M14.5546875,63.203125l0.8203125-0.546875q0.078125,0-1.1328125,0.859375l0.3125-0.3125q0.9375-0.6640625,10.234375-7.109375q-7.5,4.53125-10.546875,5.9765625q-1.3671875,0.6640625-1.9921875,0.8203125q-0.390625,0.15625-0.703125,1.42578125t-0.5078125,1.46484375q0.6640625-0.5078125,1.93359375-1.42578125t1.58203125-1.15234375z M17.0546875,59.765625l0.78125-0.46875q-1.5234375,0.78125-1.5234375,0.859375q0.2734375-0.15625,0.7421875-0.390625q5.9765625-3.359375,16.3671875-9.921875q-2.8515625,1.6015625-8.02734375,4.58984375t-7.32421875,4.19921875q-0.1171875,0.078125-1.54296875,0.859375t-2.20703125,1.09375q-0.1171875,0.078125-0.68359375,0.3125t-0.83984375,0.48828125t-0.390625,0.68359375q0.6640625-0.234375,4.6484375-2.3046875z M12.171875,67.6171875l-0.234375,0.15625l0.3125-0.15625l-0.078125,0q-0.078125,0.0390625-0.52734375,0.3125t-0.78125,0.546875t-0.37109375,0.4296875q0.46875-0.2734375,1.3671875-0.83984375t1.328125-0.83984375q-0.546875,0.2734375-1.015625,0.390625z M17.7578125,74.1015625l-1.2890625,0.859375q-0.0390625,0,0.390625-0.29296875t0.87890625-0.60546875t0.48828125-0.3125l-0.46875,0.3515625q-2.5390625,1.6796875-5.2734375,3.28125q-0.2734375,0.1171875-0.83984375,0.390625t-0.83984375,0.390625q-0.234375,0.1171875-0.234375,0.3125l0.0390625,0.1953125q0.0390625,0.15625,0.0390625,0.3125q1.171875-0.8203125,3.45703125-2.28515625t3.26171875-2.12890625q1.40625-0.8203125,3.515625-2.3828125l0.5859375-0.390625q0.625-0.390625,1.03515625-0.7421875t0.44921875-0.546875q-0.46875,0.3515625-5.1953125,3.59375z M18.734375,77.109375l-0.6640625,0.5859375q1.0546875-0.8203125,1.0546875-0.8984375q-0.15625,0.078125-0.390625,0.3125q-0.15625,0.15625-6.015625,5.078125q1.875-1.0546875,7.9296875-4.7265625l0.7421875-0.390625q0.7421875-0.390625,1.23046875-0.72265625t0.48828125-0.48828125q-0.078125-0.46875-0.078125-1.3671875l0-1.3671875q-0.3515625,0.4296875-0.7421875,0.859375t-0.8984375,0.87890625t-0.8203125,0.72265625t-0.9765625,0.8203125t-0.859375,0.703125z M41.2734375,51.6796875l0.078125,0l-0.078125,0q0.46875-0.15625,0.6640625-0.15625q0.3125,0,0.625,0.15625q0.1171875,0,0.2734375,0.0390625t0.2734375,0.0390625q0.5859375-0.390625,0.8203125-0.625q2.03125-1.640625,3.359375-2.96875q-2.3046875,1.3671875-3.28125,1.8359375q-0.1953125,0.1953125-1.4453125,0.95703125t-1.2890625,0.72265625z M46.078125,47.5390625l-0.15625,0.15625l0.15625-0.15625q-0.703125,0.5078125-2.1875,1.484375t-2.2265625,1.484375q1.2109375-0.6640625,5.625-3.203125l-0.390625-0.1953125q-0.1953125,0-0.8203125,0.4296875z M49.90625,48.6328125q-0.46875,0.2734375-0.46875,0.3515625l0.46875-0.3515625q-0.8984375,0.5859375-2.6171875,1.73828125t-2.578125,1.69921875l0.234375,0.078125t0.17578125,0.078125t0.09765625,0.0390625q0.078125,0,0.390625-0.1953125q1.5625-0.9765625,1.8359375-1.171875q1.484375-0.859375,2.96875-2.0703125q-0.078125-0.0390625-0.25390625-0.09765625t-0.25390625-0.09765625z M58.96875,66.328125l0.234375-0.234375q-0.234375,0.15625-0.234375,0.234375q0.703125-0.46875,1.5234375-1.0546875q0.46875-0.3125,0.78125-0.46875q-0.078125-0.234375-0.078125-0.703125l0-1.0546875l0-0.46875q-2.5390625,2.5390625-3.671875,3.90625l0.15625,0q0.15625,0,0.48828125-0.1171875t0.48828125-0.1171875q0.234375,0,0.3125,0.078125z M54.7109375,64.8828125q0.1953125-0.1171875,0.4296875-0.234375l0.3125-0.15625t0.078125-0.078125q-0.8203125,0.390625-0.8203125,0.46875q3.4375-1.875,5.78125-3.28125q0.4296875-0.2734375,0.546875-0.37109375t0.1171875-0.41015625t0.0390625-0.5078125q0.078125-0.625,0.078125-1.8359375q-3.59375,3.203125-4.375,3.9453125q-0.078125,0.078125-0.76171875,0.6640625t-1.07421875,1.03515625t-0.3515625,0.76171875z M60.9609375,54.6484375q0.078125,0.078125,0.078125,0.234375q0,0.3515625-0.703125,1.2890625q-1.2109375,1.5625-4.8046875,4.6484375q0.46875-0.3125,1.7578125-1.26953125t2.0703125-1.46484375q0.078125-0.0390625,0.44921875-0.2734375t0.546875-0.33203125t0.5078125-0.1953125t0.56640625-0.05859375q0.15625-0.78125,0.15625-1.2109375q0-0.546875-0.1171875-1.58203125t-0.1171875-1.46484375q-0.46875,0.3515625-1.42578125,1.07421875t-1.46484375,1.07421875q1.5625-0.78125,1.953125-0.78125q0.3515625,0,0.546875,0.3125z M61.1171875,51.0546875l-0.15625,0.15625q0.15625-0.078125,0.15625-0.15625q-0.625,0.4296875-2.48046875,1.640625t-2.87109375,1.953125q-0.1171875,0.078125-0.8203125,0.56640625t-1.11328125,0.87890625t-0.56640625,0.78125q0.546875,0,1.953125-0.9375q0.390625-0.2734375,0.80078125-0.60546875t0.91796875-0.7421875t0.8203125-0.64453125q0.390625-0.3125,1.19140625-0.9375t1.19140625-0.9375q0.1171875-0.078125,0.3125-0.17578125t0.29296875-0.15625t0.21484375-0.15625t0.15625-0.21484375t0-0.3125z M61.1171875,49.140625l0,0.078125l0-0.078125q0,0.15625-0.72265625,0.68359375t-1.62109375,1.09375t-0.9375,0.60546875q-0.5859375,0.4296875-1.71875,1.171875t-2.03125,1.38671875t-1.6796875,1.26953125q1.40625-0.8984375,5.8203125-4.0625q1.5625-0.9765625,2.03125-1.2109375q0.15625-0.078125,0.390625-0.17578125t0.2734375-0.15625t0.078125-0.17578125t0.1171875-0.4296875z M50.2578125,55.4296875l0.3125-0.15625l-0.3125,0.15625q1.6015625-0.78125,3.59375-2.1484375q-0.390625,0.1953125-1.9921875,1.15234375t-1.6015625,0.99609375z M61.0390625,48.0859375l-0.703125,0.3125l0.703125-0.3125q-2.96875,1.4453125-8.1640625,4.8828125q1.7578125-1.015625,4.9609375-2.734375q0.1171875-0.0390625,0.546875-0.2734375t0.83984375-0.44921875t0.83984375-0.48828125t0.703125-0.5078125t0.2734375-0.4296875z M54.8671875,50.7421875q1.2109375-0.7421875,1.2890625-0.7421875q-1.5234375,0.9765625-1.6015625,0.9765625q0.078125-0.078125,0.3125-0.234375q2.890625-1.796875,4.4140625-2.578125q0.1171875-0.078125,0.6640625-0.33203125t0.87890625-0.5078125t0.29296875-0.52734375q-0.0390625,0-0.1171875,0.0390625t-0.1171875,0.0390625q-0.15625,0-0.46875-0.1171875t-0.4296875-0.1171875q-0.15625,0-0.3125,0.15625q-0.1953125,0.1171875-0.60546875,0.41015625t-0.60546875,0.41015625q-2.6171875,1.796875-3.4375,2.2265625q-0.1953125,0.5859375-0.9375,0.8984375l-0.234375,0.15625q-0.1171875,0-0.29296875-0.1171875t-0.29296875-0.1171875q-0.4296875,0.546875-1.30859375,1.4453125t-1.23046875,1.328125q0.8203125-0.5859375,2.34375-1.5625t1.796875-1.1328125z M52.09375,49.84375l-0.15625,0q-0.2734375,0-0.8203125,0.546875q0.9765625-0.46875,0.9765625-0.546875z M48.734375,51.5234375l-0.5078125,0.390625q0.1953125-0.15625,0.5078125-0.390625q-0.3125,0.234375-1.015625,0.68359375t-1.015625,0.68359375l0.1953125,0.078125q0.2734375,0,0.625-0.2734375t0.72265625-0.68359375t0.48828125-0.48828125z M47.9140625,53.4375l0.8203125-0.546875q-0.1953125,0.078125-0.8203125,0.546875q0.3125,0.0390625,0.60546875,0.3515625t0.37109375,0.3125q0.15625,0,0.390625-0.234375q0.46875-0.546875,1.42578125-1.58203125t1.46484375-1.54296875q-1.3671875,0.625-4.2578125,2.6953125z M52.875,58.4765625q1.5234375-1.09375,1.6796875-1.25q-0.5078125,0.3125-1.1328125,0.3125q-0.859375,0-0.859375-0.6640625q0-0.46875,0.546875-1.015625q-1.0546875,0.703125-1.6796875,0.859375q0.1953125,0.234375,0.703125,0.8203125t0.7421875,0.9375z M53.9296875,60.9765625q0,0.078125,0.078125,0.078125q0.1171875,0,0.33203125-0.1953125t0.44921875-0.4296875t0.3125-0.2734375q0.46875-0.46875,1.0546875-0.9375q0.3125-0.2734375,0.9765625-0.8984375t1.015625-0.9375q1.5234375-1.5234375,1.9921875-2.1875q-0.625,0.234375-1.34765625,0.625t-1.19140625,0.72265625t-1.25,0.8984375t-1.1328125,0.80078125q-0.15625,0.1171875-0.60546875,0.37109375t-0.72265625,0.5078125t-0.2734375,0.48828125l0,0.15625q0.3125,0.4296875,0.3125,1.2109375z M56.625,60.8984375l-0.3125,0.234375l0.5859375-0.390625q-0.1171875,0-0.2734375,0.15625q-0.078125,0.078125-0.72265625,0.48828125t-1.2109375,0.80078125t-0.52734375,0.546875q0.078125,0.390625,0.234375,1.015625q1.7578125-1.7578125,5.4296875-5.1171875q-0.4296875,0.2734375-1.50390625,1.07421875t-1.69921875,1.19140625z M55.53125,66.25l0.078125,0l-0.15625,0l0.078125,0l0.625,0q0.5859375,0,1.1328125-0.625q0.3125-0.390625,2.5390625-2.8125q-0.625,0.3515625-1.8359375,1.07421875t-1.8359375,1.07421875q-0.0390625,0.0390625-0.390625,0.21484375t-0.5859375,0.33203125t-0.234375,0.2734375q0.078125,0.15625,0.078125,0.390625l0,0.078125l0.1953125,0l0.3125,0z M61.1953125,66.328125q0.15625,0,0.15625-0.15625q0-0.078125-0.0390625-0.234375t-0.0390625-0.234375q-0.390625,0.234375-1.015625,0.703125q0.1171875,0,0.37109375-0.0390625t0.41015625-0.0390625l0.15625,0z M49.125,48.1640625q-0.078125-0.0390625-0.2734375-0.15625t-0.2734375-0.15625q-0.4296875,0.546875-0.8203125,0.859375q-0.15625,0.1953125-0.390625,0.4296875t-0.52734375,0.5078125t-0.44921875,0.4296875q0.078125-0.0390625,0.78125-0.56640625t1.328125-0.95703125t0.625-0.390625z M42.5625,46.015625l-0.078125,0l0.078125,0q-0.15625,0-0.4296875-0.0390625t-0.390625-0.0390625q-0.625,0-1.40625,0.546875q-0.390625,0.234375-2.578125,1.7578125q-0.625,0.390625-5.8984375,4.0234375q-7.9296875,5.3125-10.9765625,7.5q3.4375-2.2265625,6.328125-3.59375q0.15625-0.0390625,0.4296875-0.15625t0.4296875-0.15625q0.15625-0.078125,0.44921875-0.46875t0.44921875-0.5078125q0.3515625-0.3125,1.7578125-0.703125q0.8984375-0.234375,1.8359375-1.0546875q1.0546875-0.703125,1.2109375-0.859375q0.8984375-0.8984375,1.4453125-0.8203125q0.390625,0,0.859375,0.46875q0.15625-0.234375,0.625-0.546875q0.859375-0.5078125,1.2890625-0.859375q0.7421875-0.4296875,2.08984375-1.34765625t2.4609375-1.6015625t2.16796875-1.15234375q-0.2734375-0.15625-2.1484375-0.390625z M34.3984375,45.546875l-0.078125,0l0.15625,0l-0.078125,0q-0.1953125,0-0.3515625-0.13671875t-0.2734375-0.13671875q-0.078125,0-0.234375,0.078125q-0.2734375,0.2734375-0.6640625,0.2734375l-0.15625,0l-0.078125,0q-0.078125,0-0.15625,0.078125q-0.234375,0.1953125-0.72265625,0.546875t-0.72265625,0.546875q-0.9765625,0.78125-2.9296875,2.265625t-2.890625,2.2265625q-1.5625,1.171875-4.6875,3.57421875t-4.6875,3.61328125q3.9453125-2.3046875,11.1328125-5.9765625q1.71875-0.8984375,3.53515625-2.01171875t4.140625-2.63671875t3.41796875-2.2265625q-0.15625,0-0.41015625-0.0390625t-0.546875-0.1171875t-0.41015625-0.1171875l-0.234375,0q-0.625,0-0.859375-0.15625q-0.3515625,0.3515625-1.0546875,0.3515625l-0.15625,0z M17.6796875,53.8671875l0.15625,0l-0.15625,0q1.0546875-0.4296875,1.2890625-0.5859375q1.3671875-0.78125,1.8359375-1.015625l-0.3515625-0.1171875t-0.3125-0.078125t-0.390625,0.1953125q-0.15625,0.1171875-0.5078125,0.3125t-0.5078125,0.3125q-0.1171875,0.1171875-0.44921875,0.48828125t-0.60546875,0.48828125z M23.7734375,49.84375q-0.078125,0.078125-0.078125,0.15625l0.15625-0.15625l-0.078125,0q-0.15625,0.2734375-0.6640625,0.9765625q2.65625-1.640625,6.5625-4.2578125q-0.390625,0.0390625-0.8984375,0.29296875t-1.0546875,0.64453125t-0.8203125,0.5078125q-0.546875,0.3125-1.58203125,0.91796875t-1.54296875,0.91796875z M13.34375,59.375q0.0390625-0.1171875,0.64453125-0.52734375t0.87890625-0.52734375q0.859375-0.7421875,3.7890625-2.96875q2.6171875-1.9921875,5.6640625-4.375q-0.1953125,0.1171875-1.328125,0.83984375t-1.5625,0.9765625t-1.328125,0.76171875t-1.640625,0.859375t-1.484375,0.625q-0.46875,0.1953125-0.95703125,0.8984375t-0.64453125,0.859375l-1.0546875,1.0546875q-0.3125,0.3125-0.46875,0.390625q0,0.15625-0.21484375,0.60546875t-0.29296875,0.52734375z M11.7421875,83.59375q0.1953125,0.46875,0.68359375,1.40625t0.68359375,1.40625q1.0546875-0.9765625,4.0234375-3.28125q-0.1953125,0.1171875-3.7109375,2.1484375q-0.078125,0.078125-0.3125,0.078125q-0.390625,0-0.390625-0.3125q0-0.15625,0.234375-0.390625q0.15625-0.15625,0.52734375-0.44921875t0.52734375-0.44921875q1.09375-0.8984375,3.26171875-2.65625t3.22265625-2.6171875q-1.9921875,1.1328125-4.9609375,2.96875q-0.4296875,0.1953125-2.109375,1.09375t-1.6796875,1.0546875z M15.84375,90.8984375q0.390625,0.625,0.78125,0.625q0.2734375,0,0.64453125-0.29296875t0.8203125-0.80078125t0.64453125-0.6640625q-1.3671875,0.8203125-1.7578125,0.8203125q-0.1171875,0-0.5078125-0.1953125q-0.234375-0.1171875-0.234375-0.3125l0.234375-0.46875q0.7421875-0.625,1.9921875-2.0703125q0.703125-0.703125,2.03125-2.109375t1.9921875-2.0703125q-4.21875,2.421875-8.3203125,4.8046875q0.2734375,0.46875,0.83984375,1.3671875t0.83984375,1.3671875z M18.8125,93.359375q0.15625,0.1171875,0.33203125,0.33203125t0.3125,0.3515625t0.29296875,0.13671875q0.234375,0,0.390625-0.15625q0.2734375-0.2734375,0.859375-0.83984375t0.859375-0.83984375q0.5078125-0.46875,1.46484375-1.40625t1.46484375-1.40625q-1.6015625,1.09375-6.328125,3.59375q0.0390625,0.0390625,0.17578125,0.1171875t0.17578125,0.1171875z M21.1171875,95.2734375q0.078125,0,0.15625,0.078125q0.0390625-0.3125,0.234375-0.5859375t0.56640625-0.546875t0.625-0.44921875t0.703125-0.4296875t0.52734375-0.29296875q-3.125,1.71875-3.359375,1.8359375q0.3125,0.15625,0.546875,0.390625z M22.25,96.015625l0.234375,0l-0.234375,0l0.9375,0.46875q0.390625-0.546875,1.4453125-1.6015625q-1.4453125,0.9765625-2.3828125,1.1328125z M27.8359375,98.90625q0.390625,0,1.8359375-1.2109375q0.546875-0.3515625,1.9140625-1.3671875q1.9921875-1.5625,2.578125-2.1484375q-1.328125,0.703125-3.65234375,2.32421875t-3.37890625,2.20703125q0.078125,0.0390625,0.29296875,0.1171875t0.41015625,0.078125z M34.1640625,96.5625q-0.1171875,0.0390625-1.93359375,1.09375t-2.71484375,1.640625q0.3515625,0,0.8203125,0.234375q0.1953125-0.15625,0.5859375-0.48828125t0.5859375-0.48828125q0.9765625-0.703125,2.65625-1.9921875z M37.2109375,100.234375l-0.078125,0l0.078125,0l0.3125,0q0.4296875,0,1.2890625-0.546875q0.9375-0.7421875,2.4609375-1.6796875q1.6015625-0.9765625,4.43359375-3.046875t3.49609375-2.5390625q-9.1796875,5.78125-13.28125,7.890625q0.078125,0,0.1953125,0.0390625t0.1953125,0.0390625q0.15625,0,0.44921875-0.078125t0.44921875-0.078125z M40.6484375,100.5078125l0-0.1171875l0,0.1171875q0.0390625-0.078125,0.3125-0.3515625q-0.390625,0.1171875-0.390625,0.15625q0,0.1171875,0.078125,0.1953125z M44.4765625,99.453125l-0.15625,0l0.15625,0q0.859375,0.0390625,1.30859375-0.25390625t1.11328125-1.19140625q1.328125-1.6796875,2.4609375-1.6015625q0.15625-0.1171875,3.90625-2.96875q0.6640625-0.546875,1.8359375-1.4453125t1.6015625-1.25l0.46875-0.3125t0.60546875-0.41015625t0.5078125-0.41015625t0.37109375-0.46875q-0.9375,0.5078125-3.06640625,1.58203125t-3.7109375,1.97265625t-2.91015625,1.875q-0.78125,0.546875-2.40234375,1.73828125t-2.87109375,2.0703125t-2.421875,1.62109375q0.3125-0.15625,1.1328125-0.15625l0.390625,0q0.15625-0.078125,0.3125-0.078125l0.15625,0q0.2734375,0,0.4296875-0.15625q0.234375-0.15625,0.78125-0.15625z M48.0703125,101.2109375l-0.078125,0l0.078125,0q0.15625-0.078125,0.390625-0.078125q-0.546875-0.2734375-0.78125-0.7421875q-0.15625,0.3125-0.15625,0.5078125t0.546875,0.3125z"/><path fill="#" d=""/></svg>
