<?xml version="1.0"?>
<svg version="1.1" xmlns="http://www.w3.org/2000/svg" width="80px" height="110px" style="border:2px solid red"><path fill="#" d="M70.2578125,49.921875l0,0.078125l0-0.078125l0,0.234375q0,1.015625-0.3515625,1.9140625q0,0.5859375-0.15625,1.2109375l0,0.15625q0,0.078125-0.0390625,0.13671875t-0.0390625,0.09765625q0,0.1953125,0.078125,0.2734375q0.078125,0.15625,0.078125,0.46875q0,0.2734375-0.09765625,0.46875t-0.3125,0.3125t-0.390625,0.1953125t-0.48828125,0.17578125t-0.390625,0.13671875q-0.15625,0.078125-0.390625,0.078125l-0.46875,0l-0.3125,0l-0.1953125,0q-0.15625,0-0.625-0.15625q-0.2734375,0.234375-0.87890625,0.91796875t-1.15234375,1.07421875t-1.171875,0.390625q-0.0390625,0.078125-0.4296875,0.48828125t-0.60546875,0.72265625t-0.33203125,0.625q-0.0390625,0.1953125-0.29296875,0.44921875t-0.33203125,0.44921875l-0.46875,1.171875q-0.1171875,0.5078125-0.60546875,1.23046875t-0.60546875,0.95703125q-0.1171875,0.2734375-0.5078125,0.8203125t-0.546875,0.859375q-0.3125,0.625-1.09375,1.09375q-0.234375,0.3515625-0.60546875,1.1328125t-0.52734375,1.0546875q0,0.15625-0.17578125,0.4296875t-0.3515625,0.48828125t-0.17578125,0.17578125q0.078125,0.078125,0.078125,0.234375q0,0.1171875-0.2734375,0.6640625q-0.4296875,0.7421875-1.171875,1.3671875q-0.1171875,0.1171875-0.29296875,0.390625t-0.29296875,0.390625q-0.234375,1.0546875-1.40625,2.2265625q-0.3515625,1.09375-0.8984375,1.3671875q-0.234375,0.1953125-0.41015625,0.64453125t-0.37109375,0.64453125q-0.1171875,0.4296875-0.5078125,0.546875q0,0.46875-0.390625,0.7421875q0,0.2734375-0.2734375,0.68359375t-0.5078125,0.52734375q-0.1171875,0.9375-0.1171875,1.9140625l0,0.78125l0.2734375,0q0.78125,0,0.78125,0.390625q0,0.15625-0.3125,0.3515625l-0.29296875,0.17578125t-0.15625,0.15625t-0.05859375,0.1171875t-0.0390625,0.1953125t-0.078125,0.29296875q0.078125,0.234375,0.078125,0.9765625q0,1.1328125-0.2734375,1.8359375q-0.0390625,0.1171875-0.05859375,0.48828125t-0.09765625,0.56640625q0.078125,0.078125,0.078125,0.390625t-0.078125,0.46875q0.3515625,0.234375,0.3515625,0.625q0,0.0390625-0.05859375,0.17578125t-0.05859375,0.17578125l0,0.3125q0,0.2734375,0.15625,0.625t0.1953125,0.6640625q0.15625,0.15625,0.3125,0.625q0.078125,0.15625,0.64453125,0.234375t0.72265625,0.234375q0.234375-0.0390625,0.76171875,0.17578125t0.60546875,0.21484375q0.78125,0,1.25,0.1171875q0.390625-0.1953125,0.6640625-0.1953125q0.390625,0,0.390625,0.2734375q0.078125,0.078125,0.3125,0.078125q0.15625,0,0.41015625-0.078125t0.41015625-0.078125t0.234375,0.078125q0.390625-0.1953125,0.625-0.1953125q0.859375,0,1.2109375,0.5859375q0.1171875,0.15625,0.3125,1.09375q0.46875-0.234375,0.703125-0.234375q0.2734375,0,0.3515625,0.15625l0,0.1953125q0,0.234375-0.2734375,0.390625q-0.546875,0.3125-0.5859375,0.4296875t-0.0390625,0.4296875q0.078125,0.3125,0.078125,0.8984375l0,0.859375q0.078125-0.078125,0.3125-0.078125q0.15625,0,0.234375,0.15625q0.1171875,0.1171875,0.1171875,0.2734375q0,0.703125-1.0546875,1.7578125q0,0.0390625,0.0390625,0.15625t0.0390625,0.15625q0,0.46875-0.44921875,0.87890625t-0.91796875,0.41015625q-0.0390625,0-0.1171875-0.0390625t-0.1171875-0.0390625q-0.3125,0.15625-1.2890625,0.15625q-0.234375,0-0.60546875,0.15625t-0.56640625,0.15625q-0.2734375,0-0.3515625-0.078125q-0.5078125,0.390625-1.015625,0.390625q-0.4296875,0-0.6640625-0.234375q-0.625,0-0.859375-0.078125q-1.0546875-0.390625-1.7578125-0.390625q-0.390625-0.0390625-1.171875,0.05859375t-1.09375,0.09765625q-0.46875,0-0.703125-0.078125q-0.1953125-0.0390625-0.5859375,0.13671875t-0.546875,0.17578125q-0.078125,0-0.390625-0.15625q-0.234375,0.15625-0.625,0.15625l-0.5078125,0q-0.3125,0-0.46875,0.078125l-0.234375,0q-0.3125,0-0.546875-0.234375q-0.1953125,0.0390625-0.33203125,0.1171875t-0.33203125,0.1171875q-0.15625,0.078125-0.3125,0.078125q-0.1171875,0-0.3515625-0.0390625t-0.3515625-0.0390625q-0.3125,0-1.2890625-0.390625q-0.15625,0.078125-0.46875,0.078125q-0.4296875,0-0.8984375-0.15625q-0.15625,0.078125-0.625,0.078125q-0.8203125,0-1.6015625-0.15625l-0.4296875,0q-0.78125,0-1.6796875,0.390625q-0.46875,0.234375-1.015625,0.234375l-0.234375,0q-0.15625-0.0390625-0.41015625-0.2734375t-0.64453125-0.2734375q-0.1171875,0-0.5859375,0.078125t-0.625,0.078125l-0.15625,0q-0.234375-0.15625-0.78125-0.15625l-0.8984375,0l-0.078125,0q-0.078125,0-0.234375-0.0390625t-0.234375-0.0390625l-0.078125,0q-0.46875,0.3125-0.8984375,0.3125l-0.15625,0q-0.1171875-0.0390625-0.48828125-0.1171875t-0.44921875-0.1171875l-0.9765625-0.078125q-0.46875,0.234375-0.78125,0.234375q-0.2734375,0-0.2734375-0.234375q0-0.1953125,0.078125-0.3515625q0-0.0390625,0.5078125-0.546875q0-0.0390625-0.0390625-0.13671875t-0.0390625-0.17578125q0-0.0390625,0.0390625-0.15625t0.0390625-0.15625q-0.078125-0.234375-0.078125-0.8203125l0-0.859375q0-0.5859375-0.078125-0.8203125q-0.15625,0.078125-0.4296875,0.078125q-0.234375,0-0.3125-0.15625q-0.078125-0.078125-0.078125-0.234375t0.6640625-0.8203125q0.2734375-0.3125,0.29296875-0.80078125t0.09765625-0.68359375t0.13671875-0.5078125t0.15625-0.546875t0.33203125-0.46875q0.15625-0.15625,0.78125-0.33203125t0.8984375-0.17578125q0.15625,0,0.4296875-0.1171875t0.390625-0.1171875q0.1171875,0.0390625,0.234375,0.15625t0.15625,0.21484375t0.078125,0.09765625q0.9375,0,1.5234375,0.3515625q0.078125-0.0390625,0.56640625-0.2734375t0.72265625-0.234375q0.15625,0,0.46875,0.15625q0.1953125-0.0390625,0.44921875-0.17578125t0.52734375-0.33203125t0.390625-0.2734375q0.390625-0.3125,0.625-0.9765625t0.46875-0.9375q-0.078125-0.234375-0.078125-1.1328125q0-0.546875,0.078125-0.703125q-0.234375-0.8203125-0.234375-2.109375l0-0.625q-0.234375-0.8203125-0.234375-1.6796875q0-0.625,0.1171875-1.81640625t0.1171875-1.69921875q-0.078125-0.15625-0.078125-0.390625q0-0.4296875-0.078125-0.6640625q-0.15625-0.15625-0.234375-0.3125q-0.625-0.78125-0.9765625-1.3671875q-0.1171875-0.234375-0.46875-0.625t-0.46875-0.625q-0.15625-0.15625-0.44921875-0.1953125t-0.44921875-0.15625l-0.15625-0.234375q-0.0390625,0-0.05859375,0.01953125t-0.078125,0.05859375t-0.17578125,0.078125q-0.078125,0.078125-0.234375,0.078125q-0.1953125,0-0.390625-0.390625l0-0.078125q0-0.3125,0.2734375-0.6640625t0.2734375-0.546875q0-0.15625-0.078125-0.234375q-0.234375-0.234375-0.390625-0.546875q-0.078125-0.15625-0.29296875-0.44921875t-0.29296875-0.44921875q-0.1953125-0.3515625-0.76171875-1.03515625t-0.76171875-1.03515625q0-0.078125-0.234375-0.078125q-0.15625,0-0.5859375,0.1171875t-0.5859375,0.1171875q-0.234375,0-0.48828125-0.15625t-0.25390625-0.390625t0.15625-0.3125q0.7421875-0.546875,0.7421875-0.7421875q0-0.0390625-0.0390625-0.09765625t-0.1171875-0.21484375l-0.15625-0.3125q-0.6640625-0.6640625-1.4453125-2.2265625q-0.46875,0.46875-0.8203125,0.46875q-0.234375,0-0.3125-0.15625q-0.078125-0.078125-0.078125-0.3125q0-0.1953125,0.15625-0.5859375t0.15625-0.46875l0-0.15625q-0.1171875-0.234375-0.46875-0.60546875t-0.46875-0.60546875q-0.625-0.46875-1.6796875-1.9140625q-0.078125-0.078125-0.4296875-0.60546875t-0.68359375-0.99609375t-0.48828125-0.46875q-0.4296875,0-0.56640625-0.21484375t-0.13671875-0.5859375t-0.1171875-0.56640625q-0.078125-0.078125-0.3125-0.546875q-0.1171875-0.234375-0.48828125-0.56640625t-0.48828125-0.48828125q-0.1953125-0.1171875-0.5078125-0.3515625t-0.5859375-0.37109375t-0.5078125-0.17578125q-0.1953125-0.078125-0.33203125-0.3515625t-0.29296875-0.3515625q-0.15625-0.1171875-0.48828125-0.1953125t-0.48828125-0.1953125l-0.15625,0q-0.859375,0-1.171875,0.15625l-0.3515625,0q-1.5234375,0-1.9921875-0.3125q-0.4296875,0.1171875-0.76171875-0.2734375t-0.33203125-0.859375q0-0.3125,0.078125-0.390625l0-0.15625q0-0.8984375,0.390625-1.6796875l0-0.4296875q0-0.234375-0.0390625-0.6640625t-0.0390625-0.6640625q-0.78125,0.390625-0.8203125,0.390625q-0.078125,0.078125-0.234375,0.078125q-0.3125,0-0.3125-0.390625q0-0.2734375,0.703125-0.9765625q0.2734375-0.3125,0.37109375-0.44921875t0.15625-0.3515625t0.05859375-0.56640625l0-0.390625q0-0.703125,0.546875-0.9765625q0.46875-0.234375,1.0546875-0.234375q0.546875,0,1.171875,0.15625q0.234375-0.234375,0.7421875-0.234375l0.15625,0q0.0390625,0,0.1171875,0.0390625t0.1171875,0.0390625q0.078125,0,0.3125-0.1171875t0.4296875-0.1171875l1.25,0q0.1953125,0,0.3515625,0.078125t0.234375,0.078125q0.0390625,0,0.15625-0.0390625t0.15625-0.0390625q0.078125-0.078125,0.234375-0.078125q0.234375,0,0.3125,0.078125q0.1953125,0.0390625,0.48828125,0.078125t0.48828125,0.078125q0.5078125-0.390625,1.171875-0.390625q0.4296875,0,0.5859375,0.078125t0.390625,0.078125q0.078125,0,0.29296875-0.0390625t0.33203125-0.0390625q0.1953125,0,0.5078125,0.15625q0.4296875-0.0390625,1.1328125,0.05859375t0.9375,0.09765625q0.46875,0,0.703125-0.078125q0.078125,0,0.234375-0.0390625t0.1953125-0.0390625q0.2734375,0,0.859375,0.15625t0.8984375,0.15625q0.234375,0,0.390625-0.078125q0.3125-0.3125,1.2890625-0.3125q0.7421875,0,1.9140625,0.234375l0.234375,0q0.1953125,0,0.52734375-0.0390625t0.52734375-0.0390625l0.234375,0q0.15625,0,0.52734375-0.078125t0.56640625-0.078125q0.3515625,0,0.4296875,0.078125q0.15625,0.078125,0.390625,0.078125q0.2734375,0,0.83984375-0.15625t0.83984375-0.15625q0.234375,0.0390625,0.41015625,0.09765625t0.29296875,0.05859375q0.1953125,0,0.3515625-0.078125q0.3515625-0.234375,0.9375-0.234375q0.4296875,0,1.6015625,0.234375q0.1953125,0.0390625,0.87890625,0.05859375t1.19140625,0.078125t1.0546875,0.234375t0.78125,0.546875t0.078125,0.91796875q0,0.7421875-0.15625,1.2109375q0,1.2109375-0.078125,1.4453125q0,0.7421875,0.15625,2.1484375q0.9375-0.625,1.0546875-0.625q0.1953125,0,0.3125,0.234375q0.078125,0.078125,0.078125,0.234375q0,0.1953125-0.234375,0.3125q-0.1953125,0.15625-0.5078125,0.3125t-0.46875,0.3125t-0.15625,0.4296875l0,0.078125q0,0.0390625,0.05859375,0.1171875t0.05859375,0.1171875q0,0.4296875-0.41015625,0.80078125t-0.87890625,0.33203125l-0.234375,0q-0.5078125,0-0.7421875-0.078125q-0.078125,0-0.1953125,0.1171875t-0.1953125,0.1171875l-0.625-0.15625l0,0q-0.1171875,0-0.3515625,0.078125t-0.390625,0.078125l-0.15625,0q-0.1171875,0-0.3125-0.078125t-0.3125-0.078125q-0.390625,0.390625-0.8203125,0.390625l-0.390625-0.078125q-0.078125,0-0.234375,0.15625q0.078125,0.078125,0.078125,0.3125q0,0.3515625-0.3125,0.8203125q0.0390625,0.1171875,0.21484375,0.29296875l0.25390625,0.25390625q0.078125,0.1953125,0.3515625,0.52734375t0.3515625,0.52734375q0.1171875,0.15625,0.60546875,0.52734375t0.52734375,0.48828125l0,0.15625q0,0.078125-0.0390625,0.21484375t-0.0390625,0.21484375t0.15625,0.390625q0.234375,0.46875,0.234375,0.703125l0.1953125,0.390625t0.2734375,0.4296875q1.1328125,0.859375,1.875,2.3828125q0.1953125,0.2734375,0.546875,1.1328125q0.1171875,0.15625,0.546875,0.48828125t0.5859375,0.60546875q0.5078125,0.2734375,1.328125,1.5234375q0.0390625,0.078125,0.234375-0.15625t0.390625-0.52734375t0.2734375-0.33203125q0-0.78125,1.0546875-1.3671875q0-0.6640625,1.015625-1.6796875q0-0.1953125,0.2734375-0.48828125t0.3125-0.41015625q0.078125-0.1953125,0.21484375-0.7421875t0.29296875-0.95703125t0.3515625-0.52734375q0-0.703125,0.9765625-1.6796875q0-0.6640625,0.625-1.1328125q0.078125-0.3515625,0.72265625-0.95703125t0.80078125-0.87890625q-0.15625,0.078125-0.3125,0.078125q-0.234375,0-0.41015625-0.13671875t-0.17578125-0.33203125q0-0.234375,0.4296875-0.390625q-0.078125-0.078125-0.3515625-0.078125q-0.15625,0-0.44921875,0.0390625t-0.41015625,0.0390625l-0.234375,0q-0.625-0.15625-0.8203125-0.15625q-0.234375,0-0.390625,0.078125q-0.46875,0.234375-0.625,0.234375q-0.2734375,0-0.3515625-0.15625q-0.3125-0.3125-0.390625-0.3125l-0.15625,0q-0.390625,0-0.703125-0.33203125t-0.4296875-0.80078125l0-0.46875q-0.390625-0.1171875-0.390625-0.4296875q0-0.15625,0.078125-0.234375q0.3125-0.4296875,0.3125-0.9375l0-0.7421875l0-0.3125q-0.15625-0.9375-0.15625-1.5234375q0-0.1953125,0.0390625-0.5859375t0.0390625-0.546875l0-0.625q0-0.78125,0.234375-1.2890625t0.8984375-0.390625l0.15625,0q0.1953125,0,0.60546875-0.15625t0.60546875-0.15625q0.234375,0,0.390625,0.078125q0.4296875,0.4296875,0.46875,0.390625q0.15625-0.078125,0.5078125-0.078125l0.15625,0q0.3125,0.0390625,1.03515625,0.17578125t1.11328125,0.13671875q0.234375-0.078125,0.46875-0.078125q0.2734375,0,0.4296875-0.078125q0.078125-0.078125,0.3125-0.078125q0.3125,0,0.546875,0.234375q0.078125-0.078125,0.5859375-0.078125q0.78125,0,1.09375,0.15625q0.15625-0.078125,0.46875-0.078125q0.3515625,0,0.8203125,0.15625q0.0390625-0.0390625,0.21484375-0.15625t0.33203125-0.21484375t0.3125-0.09765625q0.234375,0,0.3515625,0.3125l0.234375-0.078125l0.234375,0q0.3125-0.15625,0.78125-0.3125l0.1953125,0q0.1171875,0,0.25390625,0.078125t0.21484375,0.078125l0.078125,0q0.3125-0.15625,0.46875-0.15625q0.078125,0,0.1953125,0.0390625t0.1953125,0.0390625q0.3125,0.15625,0.8203125,0.15625l0.546875,0l0.234375-0.0390625q0.234375-0.0390625,0.4296875-0.0390625q0.859375,0,1.09375,0.234375l0.5078125,0q0.234375,0,0.546875-0.15625q0.15625-0.078125,0.390625-0.078125q0.390625,0,0.546875,0.15625q0.3125-0.15625,0.7421875-0.15625l0.15625,0l0.15625,0q0.078125,0,0.3515625-0.0390625t0.390625-0.0390625l0.15625,0l0.15625,0q0.15625,0,0.37109375,0.0390625t0.33203125,0.0390625l0.15625,0q0.15625-0.078125,0.5078125-0.078125q0.859375,0,1.26953125,0.91796875t0.41015625,2.05078125l0,0.46875z M48.3046875,77.03125l-0.15625,0.078125q0.078125,0,0.15625-0.078125t0.078125-0.3125q-4.921875,3.515625-7.5,5.2734375q2.3046875-1.3671875,3.828125-2.2265625q1.5625-0.9375,2.421875-1.3671875q0.3515625-0.1953125,0.64453125-0.68359375t0.52734375-0.68359375z M55.609375,65.546875q0,0.0390625-0.56640625,0.3515625t-1.23046875,0.68359375t-0.78125,0.44921875q-0.5078125,0.3125-1.5234375,0.9765625t-1.5234375,0.9765625q-1.1328125,0.8203125-3.4765625,2.3828125t-3.4765625,2.3828125q-0.5859375,0.390625-2.01171875,1.38671875t-2.265625,1.5625t-2.109375,1.26953125t-2.40234375,1.09375q0.0390625,0.078125,0.15625,0.234375t0.15625,0.234375q0.8203125-0.703125,3.59375-2.3046875q5.15625-3.203125,7.6171875-4.8828125q3.75-2.7734375,5.8203125-3.359375q1.6015625-0.4296875,3.046875-1.875q0.234375-0.2734375,0.9765625-1.5625z M49.125,71.9140625l0.546875-0.3125l-0.546875,0.3125q0.5859375-0.3515625,3.4375-2.3046875q-0.234375-0.0390625-0.72265625,0.25390625t-1.11328125,0.76171875t-0.6640625,0.5078125q-0.4296875,0.234375-1.25,0.72265625t-1.2890625,0.72265625q-0.5078125,0.3125-2.32421875,1.34765625t-2.71484375,1.69921875q4.8828125-2.65625,6.640625-3.7109375z M35.1015625,80.8984375l0.2734375-0.078125q-0.1171875,0-0.2734375,0.078125q-0.234375,0.078125-0.234375,0.390625l0,0.234375q1.484375-0.8203125,3.7890625-2.1484375q-2.578125,1.328125-3.5546875,1.5234375z M35.1015625,88.3984375q4.8046875-3.984375,9.0625-7.421875q-1.015625,0.5859375-3.0078125,1.73828125t-3.0078125,1.77734375q-0.5078125,0.2734375-1.50390625,0.83984375t-1.54296875,0.83984375q-0.3125,0.1953125-0.3125,0.703125q0,0.2734375,0.3125,1.5234375z M49.203125,75.1953125l-1.3671875,1.0546875q0.3125-0.2734375,1.3671875-1.0546875q1.1328125-0.8203125,1.5234375-1.8359375q-1.5234375,0.8984375-5.91796875,3.49609375t-6.81640625,3.96484375q-2.8125,1.5625-3.046875,1.6796875t-0.234375,1.25q0,0.3125,0.0390625,0.83984375t0.0390625,0.60546875q2.03125-1.4453125,6.93359375-4.78515625t7.48046875-5.21484375z M53.6171875,68.90625q-0.0390625,0-0.21484375,0.1171875t-0.21484375,0.1171875l0.078125,0q0.234375,0,0.3515625-0.234375z M57.2890625,63.203125q0,0.15625-0.859375,0.625t-1.89453125,0.9765625t-1.19140625,0.625q-1.09375,0.6640625-3.33984375,1.953125t-3.37890625,1.9140625q-0.2734375,0.15625-0.83984375,0.46875t-0.83984375,0.46875q-0.15625,0.078125-0.6640625,0.64453125t-0.859375,0.56640625q-0.15625,0-0.3125-0.078125q-0.5859375,0-1.1328125,0.390625t-1.25,1.1328125t-0.9765625,0.9765625q-1.25,1.09375-5.4296875,4.375q1.484375-0.625,3.203125-1.66015625t2.8515625-1.796875t3.125-2.1875t2.8125-2.01171875q4.375-2.9296875,6.640625-4.4140625q2.2265625-1.4453125,2.96875-1.7578125q0.2734375-0.15625,0.48828125-0.33203125t0.44921875-0.44921875t0.4296875-0.4296875z M58.4609375,61.4453125l0-0.234375q-0.4296875,0.2734375-1.484375,1.0546875t-1.6796875,1.171875q0.3125-0.1953125,1.0546875-0.56640625t1.25-0.703125t0.859375-0.72265625z M60.5703125,57.6171875l-0.078125,0.078125l0.078125-0.078125q0.078125,0,0.078125-0.15625q-2.5,1.8359375-7.3046875,5.15625t-5.5859375,3.8671875q1.0546875-0.078125,3.203125-1.4453125q0.625-0.4296875,1.9140625-1.2890625t1.9140625-1.328125q0.6640625-0.4296875,1.953125-1.328125t1.9140625-1.328125q0.390625-0.1953125,0.859375-0.546875q0.1953125-0.1171875,0.546875-0.78125t0.5078125-0.8203125z M63.8515625,54.1796875l0.859375-0.6640625q0-0.0390625-0.234375,0.13671875t-0.46875,0.33203125l-0.234375,0.1953125l0.078125,0q2.3828125-1.7578125,3.671875-2.890625q0.859375-0.859375,0.859375-1.4453125l0-0.234375q-0.8984375,0.703125-1.97265625,1.4453125t-1.81640625,1.23046875t-2.16796875,1.3671875t-1.875,1.15234375t-2.1875,1.2890625t-1.97265625,1.1328125q-0.8203125,0.5078125-2.34375,1.3671875t-2.03125,1.171875q-0.1171875,0.078125-0.390625,0.234375l-0.41015625,0.234375t-0.37109375,0.25390625t-0.37109375,0.3125t-0.2734375,0.3515625t-0.21484375,0.44921875q-0.3515625,1.015625-0.78125,1.7578125q-0.078125,0.3515625-0.5078125,0.8984375t-0.46875,0.859375q4.4140625-2.890625,7.9296875-5.3515625q0.4296875-0.3125,4.7265625-3.359375q0.15625-0.1171875,1.23046875-1.03515625t1.73828125-1.19140625z M52.40625,54.6484375l0.46875-0.3125q-0.46875,0.234375-0.46875,0.3125q1.6015625-0.9375,4.66796875-2.98828125t4.66796875-3.02734375q-0.3125-0.0390625-0.625,0.1171875t-0.6640625,0.390625t-0.546875,0.3125q-1.484375,0.9375-2.9296875,1.7578125q-0.4296875,0.234375-2.3828125,1.25t-2.9296875,1.640625q0.1953125,0,0.44921875,0.1953125t0.29296875,0.3515625z M48.96875,48.4765625l0.078125,0l-0.078125,0q-0.1953125,0.078125-0.37109375,0.29296875t-0.29296875,0.390625t-0.29296875,0.546875t-0.25390625,0.52734375q-0.859375,1.2890625-0.859375,2.109375l0,0.234375q2.734375-1.484375,5.9765625-3.59375q-0.390625-0.0390625-1.15234375-0.078125t-1.15234375-0.078125q-1.0546875,0-1.6015625-0.3515625z M46.78125,48.6328125l0.1171875-0.078125q-0.1171875,0-0.1171875,0.078125q0.3125-0.15625,0.3515625-0.15625q-0.0390625,0-0.1171875-0.0390625t-0.1171875-0.0390625q-0.1171875,0-0.1171875,0.234375z M46.8984375,50.078125l0.078125-0.078125l-0.078125,0.078125q0-0.0390625,0.13671875-0.234375t0.29296875-0.41015625t0.1953125-0.29296875q-0.3515625,0.1953125-0.4296875,0.25390625t-0.09765625,0.2734375t-0.09765625,0.41015625z M56.8984375,52.890625q-1.8359375,1.328125-2.96875,1.9921875q-0.078125,0.0390625-0.21484375,0.13671875t-0.1953125,0.13671875t-0.15625,0.09765625t-0.15625,0.09765625t-0.1171875,0.1171875t-0.078125,0.15625t-0.0390625,0.17578125t-0.01953125,0.21484375l0,0.234375q7.2265625-5.078125,11.3671875-7.265625q-0.15625-0.078125-0.390625-0.078125q-0.5078125,0-1.171875,0.3515625t-1.38671875,0.87890625t-0.87890625,0.60546875q-0.5859375,0.3515625-1.77734375,1.07421875t-1.81640625,1.07421875z M46.390625,68.0859375l0.15625-0.078125q-0.078125,0-0.15625,0.078125q-0.15625,0-0.15625,0.15625l1.5234375-1.015625q-0.390625,0-0.625-0.1171875q-0.1171875,0.5078125-0.7421875,0.9765625z M41.7421875,69.296875l-0.078125,0l0.078125,0q-0.1171875-0.1171875-0.25390625-0.29296875t-0.234375-0.2734375t-0.21484375-0.09765625l-0.390625,0.1953125q-1.1328125,0.8203125-3.125,1.9140625q-0.546875,0.3515625-2.8515625,1.7578125t-3.4765625,2.3046875l0.078125,0.078125q0.9375-0.546875,2.59765625-1.5625t3.06640625-1.8359375t2.65625-1.484375q0.546875-0.3125,1.2890625-0.625l0.15625,0q0.078125,0,0.1953125,0.0390625t0.1953125,0.0390625q0.15625,0,0.3125-0.15625z M31.7421875,75.703125q0.1953125-0.078125,0.1953125-0.15625q-0.1953125,0.078125-0.1953125,0.15625q0.078125-0.0390625,0.60546875-0.37109375t0.76171875-0.52734375q-0.0390625,0.0390625-0.21484375,0.13671875t-0.37109375,0.1953125t-0.390625,0.21484375t-0.3125,0.21484375t-0.078125,0.13671875z M38.1484375,64.6484375l-0.3125-0.3125q-0.2734375,0.3515625-0.56640625,0.6640625t-0.76171875,0.703125t-0.64453125,0.546875t-0.83984375,0.625t-0.703125,0.5078125q0.2734375-0.1171875,1.5625-0.91796875t2.03125-1.03515625q0.0390625,0,0.1171875-0.0390625t0.1171875-0.0390625q0.3125,0,0.3125,0.3515625q0,0.4296875-0.390625,0.703125q-0.1953125,0.15625-1.11328125,0.859375t-1.25,0.9765625t-1.1328125,0.91796875t-1.23046875,1.0546875t-1.03515625,0.99609375t-1.07421875,1.15234375t-0.8984375,1.15234375q0.1171875,0.1171875,2.34375-1.19140625t4.7265625-2.8125t2.8515625-1.66015625q-0.7421875-0.5859375-2.109375-3.203125z M36.3125,61.9921875q0.0390625,0.078125-0.9765625,0.99609375t-2.03125,1.77734375t-1.2890625,1.09375q-0.5078125,0.4296875-1.54296875,1.2890625t-1.58203125,1.328125q-0.234375,0.1953125-0.72265625,0.56640625t-0.72265625,0.56640625q0.234375,0.234375,0.3125,0.390625q3.828125-2.109375,9.53125-6.40625q-0.3125-0.2734375-0.5859375-0.83984375t-0.390625-0.76171875z M35.53125,60.3125q-0.1171875-0.1171875-0.8203125-1.015625q-0.1171875-0.1171875-0.3515625-0.29296875t-0.3515625-0.29296875q-0.234375,0.15625-0.68359375,0.52734375t-0.68359375,0.52734375q-0.8203125,0.5859375-2.51953125,1.7578125t-3.0078125,2.109375t-2.40234375,1.9140625q0.0390625,0.0390625,1.7578125-1.0546875t3.69140625-2.34375t2.40234375-1.484375q0.703125-0.3515625,1.7578125-0.3515625q0.625,0,0.625,0.3515625q0,0.3125-0.3125,0.625q0.15625-0.1171875,0.52734375-0.3515625t0.52734375-0.3515625q-0.15625-0.15625-0.15625-0.2734375z M29.4375,63.671875l0.390625-0.234375l-0.78125,0.5078125q0.078125-0.1171875,0.390625-0.2734375q0.2734375-0.15625,1.07421875-0.5859375t1.23046875-0.64453125t1.03515625-0.625t1.07421875-0.76171875q-0.7421875,0.1953125-1.5234375,0.5078125t-1.69921875,0.87890625t-1.38671875,0.859375t-1.58203125,1.11328125t-1.26953125,0.9375q2.421875-1.328125,3.046875-1.6796875z M31.2734375,63.515625l-1.2890625,0.8203125q0.3125-0.1953125,1.2890625-0.8203125q-4.21875,2.3828125-4.6484375,2.65625q1.2890625-0.5078125,4.6484375-2.65625z M24.2421875,64.8828125q-0.0390625-0.078125,1.0546875-0.87890625t2.2265625-1.5625t1.3671875-0.91796875q0.546875-0.3515625,1.5625-1.11328125t1.5625-1.11328125q1.7578125-1.0546875,1.6796875-1.5234375q-0.546875,0.390625-2.3046875,1.640625t-2.67578125,1.85546875t-2.421875,1.42578125t-2.75390625,1.25z M37.7578125,53.671875l0.390625-0.3125q-0.390625,0.234375-0.390625,0.3125q0.078125-0.078125,0.3515625-0.25390625t0.4296875-0.29296875t0.37109375-0.29296875t0.37109375-0.37109375t0.234375-0.390625q-0.2734375,0.078125-0.99609375,0.5078125t-1.30859375,0.87890625t-0.5078125,0.56640625q0.4296875-0.4296875,0.8203125-0.4296875q0.0390625,0,0.1171875,0.0390625t0.1171875,0.0390625z M33.1875,57.109375q-0.625,0.390625-0.625,0.5078125q0.15625-0.1171875,0.625-0.5078125q-2.109375,1.2109375-3.671875,2.03125q-2.578125,1.796875-3.515625,2.3828125q-0.1171875,0.0390625-1.1328125,0.625t-1.6015625,0.8203125q-0.3125,0.15625-0.3125,0.3125l0.078125,0l0.15625,0q1.25-0.46875,2.6953125-1.26953125t2.40234375-1.4453125t2.59765625-1.81640625t2.3046875-1.640625z M39.828125,48.5546875l-0.234375,0q-0.234375,0-0.48828125,0.13671875t-0.44921875,0.3125t-0.44921875,0.4296875t-0.37109375,0.33203125q-0.6640625,0.5859375-2.05078125,1.69921875t-2.08984375,1.66015625q-3.203125,2.4609375-9.609375,7.6171875q-1.4453125,1.1328125-1.9921875,1.6015625l-0.078125,0.078125q0.078125,0,0.37109375-0.078125t0.33203125-0.078125l-0.078125,0.078125q0.078125-0.078125,0.2734375-0.21484375t0.2734375-0.21484375q0.390625-0.3125,1.6015625-1.015625q0.625-0.390625,2.28515625-1.26953125t2.44140625-1.46484375q0.546875-0.3515625,1.54296875-1.11328125t1.26953125-0.95703125q0.15625-0.078125,0.9375-0.6640625l0-0.15625q0-0.3515625,0.5078125-0.703125q0.5078125-0.8203125,1.171875-0.703125l0.6640625-0.33203125t0.76171875-0.41015625t0.60546875-0.390625q0.15625-0.078125,0.5859375-0.41015625t0.72265625-0.52734375t0.703125-0.37109375t0.76171875-0.13671875q0-0.15625-0.0390625-0.546875t-0.0390625-0.5859375q0-0.6640625,0.15625-1.6015625z M36.703125,48.4765625l-0.078125,0l0.078125,0q-0.3125,0.15625-0.46875,0.15625q-0.234375,0-0.3125-0.078125q-0.234375,0.1171875-0.703125,0.5859375q-0.625,0.546875-2.03125,1.6015625q0.3125-0.1953125,1.07421875-0.76171875t1.40625-0.95703125t1.03515625-0.546875z M19.984375,59.609375l0.15625-0.15625q-0.15625,0.078125-0.15625,0.15625q1.5234375-0.7421875,3.046875-1.73828125t3.61328125-2.51953125t2.87109375-2.0703125q-1.6796875,1.1328125-5.8203125,3.75q-3.8671875,2.34375-3.7109375,2.578125z M23.265625,56.40625l0.8984375-0.546875l-1.2109375,0.78125q0.078125-0.078125,0.3125-0.234375q0.859375-0.546875,2.83203125-1.77734375t3.10546875-1.953125t2.6953125-1.875t2.734375-2.24609375q-0.3515625-0.0390625-0.7421875,0.13671875t-0.9375,0.546875t-0.703125,0.44921875q-0.859375,0.546875-2.65625,1.58203125t-2.6953125,1.54296875q-1.3671875,0.78125-4.08203125,2.34375t-4.08203125,2.3828125q0.15625,0.15625,0.3515625,0.625t0.3515625,0.6640625q0.625-0.390625,1.9140625-1.2109375t1.9140625-1.2109375z M17.9140625,56.71875q0.1953125,0.15625,0.859375-0.21484375t1.484375-0.95703125t0.9375-0.6640625q2.421875-1.640625,3.28125-2.1484375q3.9453125-2.5,5.6640625-3.90625q-0.3125-0.0390625-0.5859375,0.0390625t-0.56640625,0.234375t-0.48828125,0.2734375t-0.5078125,0.37109375t-0.46875,0.33203125q-0.2734375,0.1953125-1.34765625,0.91796875t-1.69921875,1.07421875q-2.65625,1.8359375-6.796875,4.4140625z M31.5859375,48.6328125l0.078125,0l-0.078125,0q-0.15625-0.0390625-0.41015625,0.1953125t-0.546875,0.52734375t-0.37109375,0.33203125q-0.703125,0.625-1.796875,1.2890625q0.8203125-0.46875,2.3046875-1.328125t1.875-1.09375l-0.078125,0q-0.078125,0-0.390625,0.0390625t-0.4296875,0.0390625l-0.15625,0z M24.7890625,49.0625l-0.15625,0q-0.390625,0-0.859375-0.15625l-0.078125,0q-0.1171875,0-0.390625,0.1171875t-0.4296875,0.1171875l-0.3125,0.3125q-0.234375,0.234375-0.703125,0.68359375t-0.83984375,0.8203125t-0.68359375,0.72265625q-2.578125,2.578125-3.9453125,3.8671875l0.15625,0q0.625,0,1.9140625-0.9765625q1.2109375-0.5859375,3.6328125-2.1484375q1.09375-0.78125,3.26171875-2.109375t2.71484375-1.6796875q-0.234375,0-0.5859375,0.21484375t-0.5859375,0.21484375q-0.1953125,0-0.2734375-0.078125q-0.15625,0.078125-0.625,0.078125l-0.78125,0l-0.4296875,0z M15.765625,55.0390625q0.1171875,0.0390625,0.41015625-0.1953125t0.6640625-0.60546875t0.72265625-0.76171875t0.64453125-0.72265625t0.37109375-0.41015625q0.5078125-0.46875,1.4453125-1.42578125t1.40625-1.46484375q-0.7421875,0.546875-2.08984375,1.6015625t-2.48046875,1.875t-2.2265625,1.40625q0.2734375,0.0390625,0.625,0.33203125t0.5078125,0.37109375z M13.265625,53.9453125l0.5078125-0.2734375q-0.1953125,0.1171875-0.5078125,0.2734375q0.234375,0.1171875,0.68359375-0.01953125t0.95703125-0.48828125t0.9375-0.6640625t0.87890625-0.703125t0.56640625-0.46875q-0.390625,0.1953125-1.81640625,1.07421875t-2.20703125,1.26953125z M10.9609375,52.265625l0,0.078125q0.0390625,0,0.234375-0.4296875q0.1171875-0.1953125,0.41015625-0.546875t0.41015625-0.546875q0.9765625-1.5625,1.171875-1.8359375q-0.1953125,0-1.26953125,0.60546875t-1.11328125,0.80078125q0.15625,0.390625,0.15625,1.875z M15.296875,48.828125q-0.1953125,0.0390625-0.44921875-0.0390625t-0.29296875-0.078125q-0.234375,0-0.46875,0.3515625q-0.15625,0.2734375-0.52734375,0.80078125t-0.52734375,0.80078125q-1.5625,2.2265625-1.8359375,2.6953125q1.2109375-0.625,2.5-1.3671875t3.06640625-1.85546875t2.44140625-1.50390625q-0.15625-0.078125-0.390625-0.078125q-0.1953125,0-0.64453125,0.078125t-0.64453125,0.078125l-0.15625,0q-0.2734375-0.0390625-0.8203125,0.078125t-0.78125,0.1171875q-0.3125,0-0.46875-0.078125z M20.6484375,60.6640625q0.078125,0.078125,0.2734375,0.33203125t0.3515625,0.4296875t0.3125,0.17578125l0.078125,0q0.234375-0.1953125,0.72265625-0.546875t0.72265625-0.546875q0.9375-0.7421875,2.7734375-2.20703125t2.7734375-2.20703125q1.1328125-0.859375,4.27734375-3.3984375t4.90234375-3.8671875q-3.1640625,1.5234375-8.75,5.703125t-8.671875,5.703125q0.234375,0.234375,0.234375,0.4296875z M25.609375,65.9375l-0.078125,0.078125l0.078125-0.078125q-0.234375,0.234375-0.390625,0.3125q0,0.078125,0.078125,0.078125q0.078125-0.15625,0.3125-0.390625z M26.9765625,68.984375q0.15625,0.15625,3.84765625-3.10546875t4.78515625-4.35546875q-2.5,1.8359375-5.3515625,3.59375q-0.15625,0.078125-0.95703125,0.56640625t-1.2109375,0.72265625t-1.07421875,0.46875t-1.171875,0.234375q0.6640625,0.8203125,1.1328125,1.875z M26.15625,70.7421875l-0.078125,0.078125z M31.9375,68.3203125l-0.9765625,0.7421875q0.3515625-0.2734375,0.9765625-0.7421875q-3.0078125,1.953125-3.6328125,2.265625q0.1171875,0.234375,0.3515625,0.234375q0.15625,0,0.3125-0.1171875t0.390625-0.33203125t0.3125-0.29296875q0.3515625-0.2734375,1.1328125-0.87890625t1.1328125-0.87890625z M29.203125,71.6796875q0.625,1.0546875,0.703125,1.1328125q0.4296875-0.5078125,0.87890625-1.015625t1.11328125-1.11328125t0.99609375-0.91796875t1.19140625-1.03515625t1.015625-0.87890625q-0.15625,0.078125-2.51953125,1.484375t-3.53515625,2.1875z M32.5625,76.71875q0.3125,0.3125,0.859375,1.2109375q4.4140625-3.4375,6.015625-4.8828125q3.125-2.34375,2.734375-3.046875q-1.328125,0.78125-4.66796875,3.0078125t-5.25390625,3.2421875q0.15625,0.3125,0.3125,0.46875z M35.1015625,90.8203125q0-0.078125,1.2890625-0.99609375t2.734375-1.9140625t1.6796875-1.19140625q-2.890625,1.953125-4.4921875,2.65625q-0.625,0.3125-0.9375,0.390625q-0.2734375,0.15625-0.2734375,0.3125l0,0.5078125l0,0.234375z M34.3984375,100.078125l1.1328125-0.625q0-0.15625-0.9375,0.46875l-0.1953125,0.15625q5.078125-2.890625,7.8515625-4.8046875q0.546875-0.390625,1.640625-1.19140625t1.640625-1.19140625q1.25-0.9375,1.09375-1.2109375q-0.234375-0.703125-0.234375-0.78125q-1.8359375,0.859375-4.00390625,2.109375t-3.5546875,2.12890625t-3.96484375,2.578125t-3.59375,2.36328125l0.234375,0q0.1171875,0,0.4296875-0.0390625t0.46875-0.0390625q0.234375,0,0.546875,0.15625q0.3125-0.15625,1.0546875-0.15625q0.3125,0,0.390625,0.078125z M25.84375,96.09375l0-0.078125l0,0.078125l0.234375-0.234375q-0.234375,0.1171875-0.234375,0.15625l0,0.078125z M25.609375,98.5546875l0.078125,0q0.078125,0,0.234375-0.17578125t0.33203125-0.41015625t0.21484375-0.2734375q0.546875-0.703125,0.6640625-0.9765625q-1.0546875,0.703125-1.4453125,0.8984375q-0.078125,0.3125-0.078125,0.9375z M28.65625,100.3125l0.078125-0.078125l-0.078125-0.078125q-0.078125,0-0.078125,0.078125q0.078125,0,0.078125,0.078125z M29.75,100.15625l0.5078125-0.546875q-0.1953125,0.15625-0.5078125,0.546875q0.546875-0.15625,1.171875-0.5859375t1.3671875-0.99609375t1.0546875-0.80078125q0.78125-0.46875,3.7109375-2.34375q-0.546875,0.3125-1.8359375,0.99609375t-2.05078125,1.1328125t-1.7578125,1.15234375t-1.66015625,1.4453125z M29.4375,96.25l-0.078125,0l0.078125,0l-0.625-0.15625q-0.1953125,0-0.4296875,0.234375q-0.1953125,0.2734375-0.60546875,0.83984375t-0.48828125,0.68359375q-0.0390625,0.0390625-0.52734375,0.5859375t-0.80078125,0.9765625t-0.2734375,0.6640625q4.296875-2.8515625,13.75-8.2421875q1.2109375-0.7421875,3.5546875-2.08984375t2.7734375-1.58203125l0.46875-0.234375l0.3125-0.234375l0-0.234375l0-0.234375q0.15625-0.46875,0.15625-1.6015625q-0.1953125,0.1171875-0.29296875,0.1953125t-0.1171875,0.1171875t-0.05859375,0.1953125t-0.078125,0.2734375t-0.46875,0.546875q-0.546875,0.5859375-2.1484375,1.4453125q-1.2109375,0.6640625-3.28125,2.03125t-2.8125,1.8359375q-1.9921875,1.1328125-2.96875,1.40625q0,0.3125-0.21484375,0.60546875t-0.64453125,0.64453125t-0.5078125,0.4296875q-0.1953125,0.15625-0.625,0.1953125t-0.625,0.15625q-0.46875,0.15625-0.9765625,0.15625l-0.15625,0q0,0.078125,0.0390625,0.17578125t0.0390625,0.13671875q0,0.390625-0.3125,0.390625q-0.234375,0-0.625-0.15625t-0.4296875-0.15625z M39.515625,100.5078125l0.078125,0l-0.078125,0q0.234375-0.0390625,0.64453125,0.01953125t0.48828125,0.05859375q0.2734375,0,0.46875-0.1953125q0.546875-0.625,1.8359375-1.9140625q3.828125-4.0234375,3.828125-4.0625q-5.15625,3.4375-8.9453125,5.7421875q0.8984375,0.1171875,1.6796875,0.3515625z M44.8671875,99.84375l0.3515625-0.15625l-0.3515625,0.234375l0-0.078125q0.46875-0.3125,1.40625-0.91796875t1.40625-0.91796875q-0.3125,0.15625-1.73828125,1.015625t-2.24609375,1.2890625l0.234375,0q0.15625,0,0.9375-0.46875z M47.2890625,100.3125l0.078125-0.078125l-0.078125,0.078125q0.234375-0.234375,0.78125-0.234375l0.6640625,0q0.2734375,0,0.56640625-0.15625t0.7421875-0.52734375t0.52734375-0.41015625q2.3828125-1.953125,3.59375-3.046875q-0.3515625,0.078125-0.7421875,0.2734375t-0.9375,0.56640625t-0.625,0.44921875q-0.3515625,0.1953125-1.09375,0.625t-1.09375,0.625q-2.421875,1.40625-3.046875,1.7578125q0.1171875,0.0390625,0.234375,0.1171875q0.15625,0.0390625,0.1953125,0.0390625q0.15625,0,0.234375-0.078125z M52.484375,95.859375q-0.15625,0-0.44921875,0.17578125t-0.625,0.4296875t-0.44921875,0.33203125q0.1171875-0.0390625,0.46875-0.29296875t0.64453125-0.44921875t0.41015625-0.1953125z M53.5390625,100.15625l-0.1171875,0l0.1171875,0q0.234375,0.0390625,0.390625-0.0390625t0.21484375-0.15625t0.15625-0.3125t0.17578125-0.3515625q-0.234375,0.15625-0.76171875,0.46875t-0.76171875,0.46875z M56.078125,97.3828125q0,0.0390625-1.015625,0.6640625t-2.12890625,1.30859375t-1.19140625,0.72265625q0.234375-0.15625,0.95703125-0.703125t1.34765625-0.8984375t1.171875-0.390625q0.390625,0,0.390625,0.3125q0,0.234375-0.15625,0.625t-0.3515625,0.72265625t-0.234375,0.41015625q0.703125,0.0390625,0.95703125-0.5859375t0.25390625-1.5625l0-0.625z M55.921875,96.015625l-0.078125,0l0.078125,0q-0.15625,0.078125-0.390625,0.078125l-0.234375,0q-0.2734375,0-0.4296875,0.15625l-0.625,0.625q-1.2109375,1.09375-2.3046875,1.953125q0.3515625-0.1953125,1.03515625-0.60546875t1.03515625-0.60546875q0.078125-0.0390625,0.44921875-0.1953125t0.56640625-0.2734375t0.46875-0.3125t0.37109375-0.390625t0.05859375-0.4296875z M48.96875,94.8828125q-0.234375,0-0.546875-0.1953125t-0.4296875-0.1953125q-0.234375,0-0.3125,0.15625q-0.390625,0.46875-1.2890625,1.3671875q-0.6640625,0.703125-2.01171875,2.109375t-2.05078125,2.109375q1.40625-0.78125,4.16015625-2.40234375t4.16015625-2.40234375q-1.09375-0.546875-1.6796875-0.546875z M42.875,86.25l0.7421875-0.390625l-0.7421875,0.390625q0.859375-0.4296875,2.8125-1.6015625q0.1171875-0.078125,0.3515625-0.1953125t0.29296875-0.15625t0.17578125-0.15625t0.13671875-0.25390625t0.05859375-0.37109375q-0.078125-0.234375-0.078125-1.09375q0-0.8984375,0.078125-1.1328125q-0.078125-0.15625-0.078125-0.546875q0-0.6640625,0.078125-0.8984375q-4.9609375,4.1015625-10.859375,8.8671875q0.78125-0.3515625,1.66015625-0.8203125t1.484375-0.83984375t1.640625-1.0546875t1.42578125-0.95703125t1.5625-1.1328125t1.40625-1.015625q0.8203125-0.546875,1.0546875-0.546875q0.15625,0,0.3125,0.15625q0.078125,0.078125,0.078125,0.234375l-0.234375,0.46875q-0.3125,0.4296875-0.68359375,0.8203125t-0.87890625,0.80078125t-0.8203125,0.64453125t-0.9765625,0.703125t-0.859375,0.625q0.625-0.3125,0.859375-0.546875z M67.2890625,53.59375q0.0390625,0,0.15625-0.0390625t0.15625-0.0390625q0.234375,0,0.390625,0.15625q-0.078125-0.15625-0.078125-0.46875q0-0.1953125,0.0390625-0.5859375t0.0390625-0.546875l0-0.234375q-1.328125,1.171875-2.0703125,1.7578125q0.546875,0.2734375,0.703125,0.2734375q0.1171875,0,0.6640625-0.2734375z"/><path fill="#" d=""/></svg>
